# xmcd
#
# Track frame offsets:
#	150
#	7280
#	28335
#	43765
#	57003
#	80370
#	92658
#	107717
#	127323
#	150009
#	160531
#	175859
#	191428
#
# Disc length: 2758 seconds
#
# Revision: 8
# Processed by: cddbd v1.5.1PL2 Copyright (c) Steve Scherf et al.
# Submitted via: audiograbber 1.83.01
#
DISCID=9d0ac40d
DTITLE=Everlast - Eat At Whitey's
DYEAR=2000
DGENRE=Hip-Hop
TTITLE0=Whitey
TTITLE1=Black Jesus
TTITLE2=I Can't Move
TTITLE3=Black Coffee
TTITLE4=Babylon Feeling (Feat. Carlos Santana)
TTITLE5=Deadly Assassins (Feat. B-Real)
TTITLE6=Children's Story (Feat. Rabzel)
TTITLE7=Love For Real (Feat. N'Dea Davenport)
TTITLE8=One And The Same
TTITLE9=We're All Gonna Die (Feat. Cee-Loo)
TTITLE10=Mercy On My Soul (Feat. Warren Haynes)
TTITLE11=One, Two (Feat. Kurupt)
TTITLE12=Graves To Dig
EXTD=YEAR: 2000
EXTT0=
EXTT1=
EXTT2=
EXTT3=feat. Merry Clayton
EXTT4=feat. Carlos Santana
EXTT5=feat. B-Real
EXTT6=feat. Rahzel
EXTT7=feat. N'Dea Davenport
EXTT8=
EXTT9=feat. Cee-Lo
EXTT10=feat. Warren Haynes
EXTT11=feat. Kurupt
EXTT12=
PLAYORDER=
